<svg width="41" height="26" viewBox="0 0 41 26" fill="none" xmlns="http://www.w3.org/2000/svg"><path d="M36.73 0H4.27C1.918 0 0 1.823 0 4.063v17.875C0 24.177 1.917 26 4.27 26h32.46c2.354 0 4.27-1.823 4.27-4.063V4.064C41 1.823 39.084 0 36.73 0zm2.562 21.938c0 1.343-1.15 2.437-2.563 2.437H4.271c-1.413 0-2.563-1.094-2.563-2.438V4.064c0-1.344 1.15-2.438 2.563-2.438h32.458c1.413 0 2.563 1.094 2.563 2.438v17.875z" fill="#FA2A00"/><path d="M40.146 4.875H.854c-.471 0-.854.364-.854.813v4.875c0 .448.383.812.854.812h39.292c.471 0 .854-.364.854-.812V5.688c0-.449-.383-.813-.854-.813zm-.854 4.875H1.708V6.5h37.584v3.25zm-23.062 6.5H5.98c-.472 0-.855.364-.855.813 0 .448.383.812.854.812h10.25c.472 0 .854-.364.854-.813 0-.448-.382-.812-.854-.812zm0 3.25H5.98c-.472 0-.855.364-.855.813 0 .448.383.812.854.812h10.25c.472 0 .854-.364.854-.812 0-.449-.382-.813-.854-.813zm17.082-4.875h-1.708c-1.413 0-2.563 1.094-2.563 2.438v1.624c0 1.344 1.15 2.438 2.563 2.438h1.708c1.413 0 2.563-1.094 2.563-2.438v-1.624c0-1.344-1.15-2.438-2.563-2.438zm.854 4.063c0 .448-.382.812-.854.812h-1.708c-.471 0-.854-.364-.854-.812v-1.625c0-.449.383-.813.854-.813h1.708c.472 0 .854.364.854.813v1.625z" fill="#FA2A00"/></svg>