<svg width="73" height="64" viewBox="0 0 73 64" fill="none" xmlns="http://www.w3.org/2000/svg"><path d="M71.213 1.808C70.02.603 68.59 0 66.916 0H6.083C4.41 0 2.98.603 1.787 1.808.595 3.014 0 4.462 0 6.154V48c0 1.693.595 3.14 1.787 4.347 1.192 1.205 2.623 1.807 4.296 1.807h20.684c0 .974-.203 1.975-.609 3a27.35 27.35 0 0 1-1.216 2.691c-.405.77-.608 1.334-.608 1.692 0 .667.24 1.245.722 1.73.482.489 1.052.733 1.711.733h19.467c.659 0 1.23-.244 1.71-.732a2.375 2.375 0 0 0 .723-1.73c0-.333-.203-.891-.608-1.673a28.381 28.381 0 0 1-1.217-2.73c-.405-1.04-.608-2.033-.608-2.981h20.683c1.673 0 3.104-.602 4.296-1.807C72.404 51.14 73 49.693 73 48V6.154c0-1.692-.596-3.14-1.787-4.346zm-3.08 36.346c0 .333-.12.621-.36.865a1.165 1.165 0 0 1-.857.365H6.083c-.329 0-.614-.122-.855-.365a1.192 1.192 0 0 1-.361-.865v-32c0-.333.12-.622.361-.865.24-.243.526-.366.855-.366h60.834c.33 0 .615.122.855.366.24.243.361.532.361.865v32z" fill="#A8B6C8"/></svg>