<svg width="72" height="63" viewBox="0 0 72 63" fill="none" xmlns="http://www.w3.org/2000/svg"><path d="M53.867 17.609c-2.152-.865-2.773-1.387-2.773-2.331 0-.756.57-1.638 2.18-1.638 1.424 0 2.515.562 2.525.567a.792.792 0 0 0 .371.095.75.75 0 0 0 .702-.482l.39-1.002a.62.62 0 0 0-.333-.797c-.876-.382-2.59-.678-2.607-.681-.027-.005-.123-.026-.123-.138l-.006-1.453a.804.804 0 0 0-.812-.794h-.702a.804.804 0 0 0-.812.794l.002 1.528c0 .117-.126.168-.173.179-2.162.516-3.513 2.103-3.513 4.105 0 2.496 2.059 3.624 4.281 4.47 1.778.7 2.502 1.409 2.502 2.449 0 1.131-1.026 1.922-2.497 1.922-1.256 0-2.956-.798-2.973-.806a.794.794 0 0 0-.342-.078.76.76 0 0 0-.718.5l-.373 1.013c-.133.378.071.685.333.822 1.044.545 3.064.864 3.154.878.024.003.147.047.147.16v1.52c0 .438.364.795.812.795h.725a.804.804 0 0 0 .813-.794V26.81c0-.15.11-.163.133-.169 2.303-.518 3.722-2.207 3.722-4.328 0-2.178-1.207-3.586-4.035-4.705z" fill="#A8B6C8"/><path d="M52.961 0C42.446 0 33.922 8.543 33.922 19.08c0 10.537 8.524 19.08 19.04 19.08C63.475 38.16 72 29.617 72 19.08 72 8.543 63.476 0 52.96 0zm0 33.738c-8.078 0-14.626-6.563-14.626-14.658 0-8.095 6.548-14.658 14.626-14.658s14.626 6.563 14.626 14.658c0 8.095-6.548 14.658-14.626 14.658zm15.171 13.668c-4.049 2.24-9.617 4.31-15.17 5.183-4.94.776-14.236-1.096-14.236-3.308 0-.838 8.152 2.065 13.083.747 3.782-1.011 3.245-4.556 1.188-5.024-2.045-.465-14.024-4.863-19.141-5.015-2.41-.071-8.362.84-11.241 1.31-.987.161-1.605.144-1.667 1.09-.287 4.397-.851 13.388-1.16 18.085-.006.099.132 1.434 1.23.494 1.204-1.027 2.89-2.167 4.45-1.812 2.449.557 23.627 4.445 26.549 3.764 4.178-.973 16.008-8 18.277-10.183 3.515-3.385.782-6.96-2.162-5.33zm-53.028-6.278L4.009 40.58c-.857-.042-1.732.605-1.944 1.437L.047 60.372c-.213.833.315 1.542 1.172 1.575l12.295-.001a1.639 1.639 0 0 0 1.678-1.498l1.35-17.685a1.516 1.516 0 0 0-1.438-1.635zM8.572 59.514a3.07 3.07 0 0 1-3.068-3.074 3.07 3.07 0 0 1 3.068-3.074 3.07 3.07 0 0 1 3.068 3.074 3.07 3.07 0 0 1-3.068 3.074z" fill="#A8B6C8"/></svg>