<svg fill="none" height="67" viewBox="0 0 68 67" width="68" xmlns="http://www.w3.org/2000/svg"><g fill="#a8b6c8"><path d="M33.718 31.256a5.238 5.238 0 0 1-.878.075h-1.452a4.21 4.21 0 0 1-1.362 1.875V55.84c0 1.026.827 1.858 1.846 1.858h9.438v-3.717h-7.592zM66.154 0H31.872c-1.02 0-1.846.832-1.846 1.858v12.57h2.814c.3 0 .592.027.878.075V3.717h30.59V53.98h-4.995l.01 3.717h6.83c1.02 0 1.847-.832 1.847-1.858V1.858A1.852 1.852 0 0 0 66.154 0z"/><path d="M53.261 17.66H47.37c-1.826 0-3.304 1.49-3.304 3.326v2.107l1.695-.2 4.597-2.426-4.847 4.848-7.41.875a2.372 2.372 0 0 0-2.07 2.636 2.363 2.363 0 0 0 2.62 2.083l8.22-.97a2.352 2.352 0 0 0 1.389-.675l5.425-5.427-3.762 7.112c-.657 1.243-1.781 1.231-2.777 1.348l-3.08.364-.051 26.468a2.842 2.842 0 0 0 2.831 2.851 2.842 2.842 0 0 0 2.833-2.85l.001-21.078h1.222v.008l.059 21.077a2.841 2.841 0 0 0 2.832 2.843h.008a2.842 2.842 0 0 0 2.824-2.859l-.059-38.135c0-1.838-1.479-3.327-3.304-3.327zm-2.971-1.674a4.849 4.849 0 0 0 3.014-1.048 4.926 4.926 0 0 0 1.877-3.876c0-2.72-2.19-4.924-4.891-4.924-2.702 0-4.892 2.205-4.892 4.924 0 1.575.736 2.976 1.879 3.878a4.848 4.848 0 0 0 3.013 1.046zM29.33 28.608h3.51c.286 0 .56-.049.816-.136a4.762 4.762 0 0 1 1.742-3.61v-5.137a2.566 2.566 0 0 0-2.558-2.575h-6.266a2.566 2.566 0 0 0-2.558 2.575v6.308c0 1.047.622 1.946 1.513 2.35l-2.496 1.565-.08-.077-.02-3.907a5.389 5.389 0 0 0-1.62-3.828 5.317 5.317 0 0 0-3.733-1.534H5.436c-2.937 0-5.338 2.406-5.353 5.362L0 42.694a2.27 2.27 0 0 0 2.25 2.288h.012c1.225 0 2.256-1 2.262-2.265l.083-16.73a.438.438 0 0 1 .438-.438.44.44 0 0 1 .436.44l.001 38.278A2.724 2.724 0 0 0 8.197 67a2.73 2.73 0 0 0 2.714-2.733V42.425h1.172v21.842A2.724 2.724 0 0 0 14.797 67a2.724 2.724 0 0 0 2.715-2.733s-.048-20.593-.05-38.282a.475.475 0 0 1 .947 0v.002c.026 5.05.013 2.537.04 8.113.01 1.792 1.97 2.855 3.46 1.921l6.733-4.226a2.289 2.289 0 0 0 .723-3.137l-.035-.05z"/><ellipse cx="10.942" cy="14.389" rx="4.69" ry="4.729"/></g></svg>