<svg width="15" height="16" viewBox="0 0 15 16" fill="none" xmlns="http://www.w3.org/2000/svg"><path fill-rule="evenodd" clip-rule="evenodd" d="M15 13.85c0 1-.75 1.75-1.75 1.75H1.75c-1 0-1.75-.75-1.75-1.75V2.35C0 1.35.75.6 1.75.6h11.375C14.25.6 15 1.35 15 2.35v11.5z" fill="#5C6979"/><path fill-rule="evenodd" clip-rule="evenodd" d="M7.5 10.975a2.875 2.875 0 1 0 0-5.75 2.875 2.875 0 0 0 0 5.75zm3.375-5.75h2c.25 0 .375-.125.375-.375V2.725c0-.25-.25-.375-.375-.375h-2c-.25 0-.375.125-.375.375v2c-.125.25.125.5.375.5z" fill="#fff"/><path fill-rule="evenodd" clip-rule="evenodd" d="M12.125 8.1c0 2.5-2 4.5-4.625 4.5-2.5 0-4.625-2-4.625-4.5 0-.375 0-.875.125-1.25H1.75v6.5c0 .25.25.375.375.375h10.75c.25 0 .375-.125.375-.375v-6.5h-1.375c.125.5.25.875.25 1.25z" fill="#fff"/></svg>