<svg width="20" height="20" viewBox="0 0 20 20" fill="none" xmlns="http://www.w3.org/2000/svg"><mask id="a" maskUnits="userSpaceOnUse" x="0" y="0" width="20" height="20"><path fill-rule="evenodd" clip-rule="evenodd" d="M10 20c5.523 0 10-4.477 10-10S15.523 0 10 0 0 4.477 0 10s4.477 10 10 10z" fill="#fff"/></mask><g mask="url(#a)" fill-rule="evenodd" clip-rule="evenodd"><path d="M5.287.106s1.25-.12 1.796-.104a11.71 11.71 0 0 1 2.907.46c1.508.428 3.541 1.98 3.541 1.98s-1.848.535-2.599.878c-1.631.744-2.718 1.623-3.264 2.273-.602.717-1.81 2.325-2.624 4.75-.263.783 0 2.957 0 2.957s-1.09-.424-1.384-.562c-.64-.3-1.046-.815-1.377-1.042C1.558 11.2 0 9.685 0 9.685s.01-2.52.627-4.092C.78 5.2.939 4.69 1.26 4.069c.312-.603.804-1.241 1.404-1.913.286-.321.689-.813 1.364-1.31.343-.251 1.258-.74 1.258-.74z" transform="translate(-.314 1.083)" fill="url(#b)"/><path d="M-.272 10.865s1.386 1.771 2.118 2.266c.733.496 2.631 1.29 2.631 1.29s.45 1.727.762 2.603c.313.875 1.659 2.744 1.659 2.744s-2.486-.607-4.515-2.744c-2.03-2.138-2.655-6.159-2.655-6.159z" fill="#5C6979"/><path d="M4.855 14.462s2.66.543 3.766.489c1.228-.06 2.452-.411 3.123-.649a9.451 9.451 0 0 0 2.989-1.68c.657-.549 2.03-2.127 2.03-2.127s-.124 4.067-1.698 6.108c-.682.883-1.56 1.874-2.704 2.667-.617.429-2.087 1.094-2.087 1.094s-1.172-.036-1.746-.114c-.574-.078-1.56-.337-1.56-.337S6 18.616 5.704 17.9c-.13-.312-.426-.894-.63-1.78-.106-.468-.219-1.66-.219-1.66z" fill="#5C6979"/><path d="M-2.041 5.102c0 5.635 4.569 10.204 10.204 10.204 5.636 0 10.204-4.569 10.204-10.204 0-5.636-4.568-10.205-10.204-10.205C2.528-5.103-2.04-.533-2.04 5.102zm20 0c0 5.41-4.386 9.796-9.796 9.796-5.41 0-9.796-4.386-9.796-9.796 0-5.41 4.386-9.796 9.796-9.796 5.41 0 9.796 4.386 9.796 9.796z" fill="#fff"/><path d="M13.875 3.55s1.927.149 2.792.255c.864.106 2.016.563 2.016.563s.862 1.522 1.13 2.219c.39 1.009.527 1.97.595 2.597.173 1.589.251 4.235-2.267 7.344s-6.824 3.762-6.824 3.762 2.36-1.587 3.188-2.471c1.033-1.102 1.712-2.383 1.994-3.487.168-.653.493-1.398.585-2.495.092-1.112-.092-2.586-.417-3.725A9.285 9.285 0 0 0 15.52 5.64c-.375-.578-1.645-2.089-1.645-2.089z" fill="#323B45"/><path d="M4.963.854S7.487.06 8.32-.064c1.92-.284 3.477-.032 4.175.139.63.154 1.902.494 3.284 1.449.393.272 1.038.72 1.76 1.44.27.27.792.949.792.949s-1.836-.361-2.552-.413c-.717-.051-2.082 0-2.082 0s-2.48-1.769-3.893-2.252C8.392.765 4.963.854 4.963.854z" fill="#5C6979"/><path d="M-3.265 11.02c0 5.636 4.568 10.205 10.204 10.205 5.635 0 10.204-4.569 10.204-10.204C17.143 5.385 12.574.816 6.94.816 1.303.816-3.265 5.385-3.265 11.021zm20 0c0 5.41-4.386 9.796-9.796 9.796-5.41 0-9.796-4.385-9.796-9.795S1.53 1.225 6.94 1.225c5.41 0 9.796 4.385 9.796 9.796z" fill="#fff"/><path d="M4.49 13.47c0 5.635 4.568 10.204 10.204 10.204 5.635 0 10.204-4.569 10.204-10.204 0-5.636-4.569-10.204-10.204-10.204C9.058 3.266 4.49 7.834 4.49 13.47zm20 0c0 5.41-4.386 9.796-9.796 9.796-5.41 0-9.796-4.386-9.796-9.796 0-5.41 4.386-9.796 9.796-9.796 5.41 0 9.796 4.386 9.796 9.796z" fill="#fff"/></g><defs><linearGradient id="b" x2="1" gradientUnits="userSpaceOnUse" gradientTransform="matrix(-2.339 -8.66888 8.81973 -2.299 7.25 9.723)"><stop stop-color="#5C6979"/><stop offset="1" stop-color="#8091A4"/></linearGradient></defs></svg>