<svg width="20" height="20" viewBox="0 0 20 20" fill="none" xmlns="http://www.w3.org/2000/svg"><mask id="a" maskUnits="userSpaceOnUse" x="0" y="0" width="20" height="20"><path fill-rule="evenodd" clip-rule="evenodd" d="M10 20c5.523 0 10-4.477 10-10S15.523 0 10 0 0 4.477 0 10s4.477 10 10 10z" fill="#fff"/></mask><g mask="url(#a)" fill-rule="evenodd" clip-rule="evenodd"><path d="M4.974 1.19s1.251-.122 1.797-.105a11.71 11.71 0 0 1 2.906.46c1.508.428 3.542 1.98 3.542 1.98s-1.849.535-2.6.878c-1.63.744-2.717 1.623-3.263 2.273-.603.717-1.81 2.325-2.624 4.75-.263.783 0 2.957 0 2.957s-1.09-.424-1.385-.562c-.64-.3-1.046-.815-1.376-1.042-.726-.497-2.284-2.011-2.284-2.011s.01-2.52.627-4.092c.154-.392.313-.902.635-1.524.312-.603.804-1.241 1.403-1.913.286-.321.69-.813 1.365-1.31.343-.251 1.257-.74 1.257-.74z" fill="url(#b)"/><path d="M-.273 10.866s1.385 1.771 2.118 2.266c.733.496 2.631 1.29 2.631 1.29s.45 1.727.762 2.602c.313.877 1.659 2.745 1.659 2.745s-2.487-.607-4.516-2.744C.352 14.886-.273 10.866-.273 10.866z" fill="#5C6979"/><path d="M4.855 14.462s2.66.543 3.766.489c1.228-.06 2.452-.411 3.123-.649a9.451 9.451 0 0 0 2.989-1.68c.657-.549 2.03-2.127 2.03-2.127s-.124 4.067-1.698 6.108c-.682.883-1.56 1.874-2.704 2.667-.617.429-2.087 1.094-2.087 1.094s-1.172-.036-1.746-.114c-.574-.078-1.56-.337-1.56-.337S6 18.616 5.704 17.9c-.13-.312-.426-.894-.63-1.78-.106-.468-.219-1.66-.219-1.66z" fill="#5C6979"/><path d="M-2.04 5.103c0 5.636 4.57 10.204 10.205 10.204 5.636 0 10.204-4.569 10.204-10.204C18.37-.532 13.8-5.101 8.165-5.101 2.529-5.101-2.039-.532-2.039 5.103zm20 0c0 5.41-4.385 9.796-9.795 9.796s-9.796-4.386-9.796-9.796c0-5.41 4.386-9.796 9.796-9.796 5.41 0 9.796 4.386 9.796 9.796z" fill="#fff"/><path d="M13.874 3.55s1.927.149 2.792.254c.864.106 2.016.564 2.016.564s.862 1.522 1.13 2.218c.39 1.01.527 1.97.595 2.597.174 1.59.251 4.235-2.267 7.344-2.518 3.11-6.824 3.762-6.824 3.762s2.36-1.587 3.188-2.47c1.033-1.102 1.712-2.384 1.994-3.487.168-.653.493-1.398.585-2.496.092-1.112-.092-2.585-.417-3.724a9.285 9.285 0 0 0-1.147-2.474c-.375-.578-1.645-2.088-1.645-2.088z" fill="#323B45"/><path d="M4.96.853S7.486.058 8.32-.065c1.919-.284 3.476-.032 4.174.139.63.154 1.902.494 3.284 1.449.393.272 1.038.72 1.76 1.44.27.27.792.949.792.949s-1.835-.361-2.552-.413c-.717-.051-2.082 0-2.082 0s-2.48-1.769-3.893-2.252C8.39.764 4.961.853 4.961.853z" fill="#5C6979"/><path d="M-3.266 11.02c0 5.636 4.569 10.205 10.204 10.205 5.636 0 10.205-4.569 10.205-10.205C17.143 5.386 12.574.816 6.938.816 1.303.816-3.266 5.385-3.266 11.02zM17 11c0 5.523-4.477 10-10 10S-3 16.523-3 11 1.477 1 7 1s10 4.477 10 10z" fill="#fff"/><path d="M4.488 13.47c0 5.636 4.569 10.204 10.204 10.204 5.636 0 10.204-4.568 10.204-10.204 0-5.635-4.568-10.204-10.204-10.204-5.635 0-10.204 4.569-10.204 10.204zm20 0c0 5.41-4.386 9.796-9.796 9.796-5.41 0-9.796-4.386-9.796-9.796 0-5.41 4.386-9.796 9.796-9.796 5.41 0 9.796 4.386 9.796 9.796z" fill="#fff"/></g><defs><linearGradient id="b" x1="11.347" y1="9.656" x2="9.082" y2=".968" gradientUnits="userSpaceOnUse"><stop stop-color="#5C6979"/><stop offset="1" stop-color="#8091A4"/></linearGradient></defs></svg>