<svg width="41" height="26" viewBox="0 0 41 26" fill="none" xmlns="http://www.w3.org/2000/svg"><path d="M38.13 11.022l-1.062-4.257a.643.643 0 0 0 .508-.63V5.45c0-1.49-1.21-2.703-2.696-2.703h-4.836V1.33A1.33 1.33 0 0 0 28.717 0H4.066a1.33 1.33 0 0 0-1.327 1.33V13a.643.643 0 1 0 1.284 0V1.33c0-.024.02-.043.043-.043h24.651c.024 0 .043.02.043.043V13a.643.643 0 1 0 1.284 0v-.73h7.576a2.103 2.103 0 0 1 1.995 1.46H37.62a.643.643 0 0 0-.642.643v1.373c0 1.112.902 2.017 2.011 2.017h.728v2.831h-1.679a4.073 4.073 0 0 0-3.842-2.746 4.073 4.073 0 0 0-3.842 2.746h-.31v-4.848a.643.643 0 1 0-1.283 0v4.848H15.44a4.073 4.073 0 0 0-3.842-2.746 4.073 4.073 0 0 0-3.842 2.746h-3.69a.043.043 0 0 1-.043-.043v-1.416h2.782a.643.643 0 0 0 0-1.287H.642a.643.643 0 0 0 0 1.287h2.097v1.416c0 .734.595 1.33 1.327 1.33h3.468l-.002.043A4.075 4.075 0 0 0 11.598 26a4.076 4.076 0 0 0 4.066-4.076l-.001-.043H30.13l-.002.043A4.075 4.075 0 0 0 34.195 26a4.075 4.075 0 0 0 4.066-4.076l-.001-.043h2.098a.643.643 0 0 0 .642-.643v-6.865a3.392 3.392 0 0 0-2.87-3.35zm-8.086-6.989h4.836c.779 0 1.412.635 1.412 1.416v.043h-6.248V4.033zm0 6.95V6.78h5.704l1.049 4.205h-6.753zm-18.446 13.73a2.788 2.788 0 0 1 0-5.578 2.789 2.789 0 0 1 0 5.578zm22.597 0a2.789 2.789 0 0 1 0-5.578 2.788 2.788 0 0 1 0 5.578zm5.521-8.238h-.727a.73.73 0 0 1-.728-.729v-.73h1.455v1.46z" fill="#FA2A00"/><path d="M11.598 20.594a1.33 1.33 0 0 0 0 2.66 1.33 1.33 0 0 0 0-2.66zm22.597 0a1.33 1.33 0 0 0 0 2.66 1.33 1.33 0 0 0 0-2.66zm-7.532-2.746h-9.587a.643.643 0 0 0 0 1.288h9.587a.643.643 0 0 0 0-1.288zm-16.435-2.746H2.011a.643.643 0 0 0 0 1.288h8.217a.643.643 0 0 0 0-1.288z" fill="#FA2A00"/></svg>