<svg width="14" height="13" viewBox="0 0 14 13" fill="none" xmlns="http://www.w3.org/2000/svg"><path fill-rule="evenodd" clip-rule="evenodd" d="M14 2.023c-.525.247-1.05.433-1.633.495.583-.372 1.05-.99 1.283-1.67-.583.37-1.167.618-1.808.742a2.755 2.755 0 0 0-2.1-.99C8.167.6 6.883 1.96 6.883 3.631c0 .247 0 .495.059.68-2.45-.123-4.55-1.36-5.95-3.216A2.92 2.92 0 0 0 .583 2.64c0 1.052.525 1.98 1.284 2.536-.467 0-.934-.123-1.284-.37v.061c0 1.485.992 2.722 2.275 2.97-.233.061-.466.123-.758.123-.175 0-.35 0-.525-.062.35 1.237 1.4 2.103 2.683 2.103-.991.804-2.216 1.3-3.558 1.3-.233 0-.467 0-.7-.063A7.83 7.83 0 0 0 4.375 12.6c5.308 0 8.167-4.64 8.167-8.66v-.37c.583-.434 1.05-.99 1.458-1.547z" fill="#5C6979"/></svg>