<svg width="20" height="20" viewBox="0 0 20 20" fill="none" xmlns="http://www.w3.org/2000/svg">
<mask id="mask0" mask-type="alpha" maskUnits="userSpaceOnUse" x="0" y="0" width="20" height="20">
<path fill-rule="evenodd" clip-rule="evenodd" d="M10 20C15.5228 20 20 15.5228 20 10C20 4.47715 15.5228 0 10 0C4.47715 0 0 4.47715 0 10C0 15.5228 4.47715 20 10 20Z" fill="white"/>
</mask>
<g mask="url(#mask0)">
<path fill-rule="evenodd" clip-rule="evenodd" d="M4.97422 1.18933C4.97422 1.18933 6.22508 1.06848 6.77063 1.08499C8.01145 1.12254 8.9786 1.34765 9.67707 1.5456C11.1854 1.97308 13.2189 3.52594 13.2189 3.52594C13.2189 3.52594 11.3704 4.05995 10.6199 4.40256C8.98806 5.14745 7.90199 6.02616 7.3559 6.67589C6.75333 7.39283 5.54564 9.00057 4.73189 11.4258C4.46899 12.2093 4.73189 14.383 4.73189 14.383C4.73189 14.383 3.64241 13.9589 3.34746 13.8207C2.70779 13.521 2.30139 13.0064 1.97053 12.7794C1.24539 12.282 -0.3125 10.7679 -0.3125 10.7679C-0.3125 10.7679 -0.303095 8.24844 0.314148 6.67589C0.467816 6.28439 0.626795 5.77358 0.948756 5.15174C1.26066 4.54934 1.75294 3.91056 2.35217 3.23854C2.63828 2.91769 3.04109 2.42598 3.71698 1.92953C4.05984 1.6777 4.97422 1.18933 4.97422 1.18933Z" fill="url(#paint0_linear)"/>
<path fill-rule="evenodd" clip-rule="evenodd" d="M-0.273438 10.8662C-0.273438 10.8662 1.11229 12.6371 1.84495 13.1324C2.57762 13.6277 4.47598 14.4222 4.47598 14.4222C4.47598 14.4222 4.9253 16.1486 5.2379 17.0245C5.5505 17.9005 6.89656 19.7689 6.89656 19.7689C6.89656 19.7689 4.4101 19.1618 2.38121 17.0245C0.352329 14.8873 -0.273438 10.8662 -0.273438 10.8662Z" fill="#5C6979"/>
<path fill-rule="evenodd" clip-rule="evenodd" d="M4.85547 14.4616C4.85547 14.4616 7.51481 15.0048 8.62135 14.9508C9.84907 14.8909 11.0727 14.5397 11.744 14.3021C12.5482 14.0176 13.6134 13.5548 14.733 12.6211C15.3901 12.0731 16.7639 10.4951 16.7639 10.4951C16.7639 10.4951 16.6386 14.562 15.0647 16.6028C14.3834 17.4862 13.5042 18.4768 12.3611 19.2702C11.7436 19.6988 10.2736 20.3643 10.2736 20.3643C10.2736 20.3643 9.10164 20.3283 8.52804 20.25C7.95445 20.1717 6.96781 19.9128 6.96781 19.9128C6.96781 19.9128 5.99959 18.616 5.70371 17.9009C5.57451 17.5886 5.27751 17.0071 5.07494 16.1201C4.96825 15.653 4.85547 14.4616 4.85547 14.4616Z" fill="#5C6979"/>
<path fill-rule="evenodd" clip-rule="evenodd" d="M-2.03906 5.10303C-2.03906 10.7385 2.52942 15.3071 8.16504 15.3071C13.8005 15.3071 18.3691 10.7385 18.3691 5.10303C18.3691 -0.532471 13.8005 -5.10107 8.16504 -5.10107C2.52942 -5.10107 -2.03906 -0.532471 -2.03906 5.10303ZM17.9609 5.10303C17.9609 10.5132 13.5752 14.8989 8.16504 14.8989C2.75488 14.8989 -1.63086 10.5132 -1.63086 5.10303C-1.63086 -0.307129 2.75488 -4.69287 8.16504 -4.69287C13.5752 -4.69287 17.9609 -0.307129 17.9609 5.10303Z" fill="white"/>
<path fill-rule="evenodd" clip-rule="evenodd" d="M13.8742 3.5498C13.8742 3.5498 15.8013 3.69852 16.6658 3.80441C17.5302 3.91029 18.6821 4.36799 18.6821 4.36799C18.6821 4.36799 19.5435 5.89001 19.8128 6.58624C20.2029 7.59521 20.3391 8.55651 20.4074 9.18326C20.5805 10.7721 20.6583 13.4181 18.1403 16.5271C15.6223 19.6361 11.3164 20.2893 11.3164 20.2893C11.3164 20.2893 13.676 18.7021 14.5043 17.8185C15.5372 16.7166 16.2157 15.4353 16.4984 14.332C16.6658 13.6787 16.9915 12.934 17.0828 11.8363C17.1753 10.7241 16.9914 9.25082 16.6658 8.1116C16.4972 7.52172 16.1616 6.62795 15.5189 5.63823C15.1437 5.06044 13.8742 3.5498 13.8742 3.5498Z" fill="#323B45"/>
<path fill-rule="evenodd" clip-rule="evenodd" d="M4.96094 0.853215C4.96094 0.853215 7.48469 0.0578251 8.31915 -0.0654228C10.239 -0.348989 11.7964 -0.0969756 12.4937 0.0739025C13.124 0.228352 14.3965 0.56842 15.7776 1.52287C16.1712 1.79487 16.8159 2.24316 17.5382 2.96317C17.8081 3.23226 18.33 3.91205 18.33 3.91205C18.33 3.91205 16.4945 3.55066 15.7776 3.49911C15.0607 3.44756 13.6959 3.49911 13.6959 3.49911C13.6959 3.49911 11.2166 1.7301 9.80334 1.24698C8.39008 0.763853 4.96094 0.853215 4.96094 0.853215Z" fill="#5C6979"/>
<path fill-rule="evenodd" clip-rule="evenodd" d="M-3.26562 11.0205C-3.26562 16.656 1.30286 21.2246 6.93848 21.2246C12.574 21.2246 17.1426 16.656 17.1426 11.0205C17.1426 5.38501 12.574 0.816406 6.93848 0.816406C1.30286 0.816406 -3.26562 5.38501 -3.26562 11.0205ZM17 11C17 16.5229 12.5228 21 7 21C1.47717 21 -3 16.5229 -3 11C-3 5.47705 1.47717 1 7 1C12.5228 1 17 5.47705 17 11Z" fill="white"/>
<path fill-rule="evenodd" clip-rule="evenodd" d="M4.48828 13.4702C4.48828 19.1057 9.05676 23.6743 14.6924 23.6743C20.3279 23.6743 24.8965 19.1057 24.8965 13.4702C24.8965 7.83472 20.3279 3.26611 14.6924 3.26611C9.05676 3.26611 4.48828 7.83472 4.48828 13.4702ZM24.4883 13.4702C24.4883 18.8804 20.1025 23.2661 14.6924 23.2661C9.28223 23.2661 4.89648 18.8804 4.89648 13.4702C4.89648 8.06006 9.28223 3.67432 14.6924 3.67432C20.1025 3.67432 24.4883 8.06006 24.4883 13.4702Z" fill="white"/>
</g>
<defs>
<linearGradient id="paint0_linear" x1="11.3469" y1="9.65598" x2="9.0821" y2="0.967763" gradientUnits="userSpaceOnUse">
<stop stop-color="#5C6979"/>
<stop offset="1" stop-color="#8091A4"/>
</linearGradient>
</defs>
</svg>
